<svg id="visual" viewBox="0 0 1920 1080" width="1920" height="1080" xmlns="http://www.w3.org/2000/svg" xmlns:xlink="http://www.w3.org/1999/xlink" version="1.1"><rect x="0" y="0" width="1920" height="1080" fill="#293245"></rect><path d="M0 661L45.7 644.3C91.3 627.7 182.7 594.3 274.2 591.8C365.7 589.3 457.3 617.7 548.8 602.2C640.3 586.7 731.7 527.3 823 511.2C914.3 495 1005.7 522 1097 558.7C1188.3 595.3 1279.7 641.7 1371.2 641.2C1462.7 640.7 1554.3 593.3 1645.8 554C1737.3 514.7 1828.7 483.3 1874.3 467.7L1920 452L1920 1081L1874.3 1081C1828.7 1081 1737.3 1081 1645.8 1081C1554.3 1081 1462.7 1081 1371.2 1081C1279.7 1081 1188.3 1081 1097 1081C1005.7 1081 914.3 1081 823 1081C731.7 1081 640.3 1081 548.8 1081C457.3 1081 365.7 1081 274.2 1081C182.7 1081 91.3 1081 45.7 1081L0 1081Z" fill="#747476"></path><path d="M0 767L45.7 742.5C91.3 718 182.7 669 274.2 649.8C365.7 630.7 457.3 641.3 548.8 656.8C640.3 672.3 731.7 692.7 823 703C914.3 713.3 1005.7 713.7 1097 693.7C1188.3 673.7 1279.7 633.3 1371.2 610C1462.7 586.7 1554.3 580.3 1645.8 598.3C1737.3 616.3 1828.7 658.7 1874.3 679.8L1920 701L1920 1081L1874.3 1081C1828.7 1081 1737.3 1081 1645.8 1081C1554.3 1081 1462.7 1081 1371.2 1081C1279.7 1081 1188.3 1081 1097 1081C1005.7 1081 914.3 1081 823 1081C731.7 1081 640.3 1081 548.8 1081C457.3 1081 365.7 1081 274.2 1081C182.7 1081 91.3 1081 45.7 1081L0 1081Z" fill="#8b8d93"></path><path d="M0 690L45.7 696.3C91.3 702.7 182.7 715.3 274.2 719.2C365.7 723 457.3 718 548.8 712C640.3 706 731.7 699 823 705.2C914.3 711.3 1005.7 730.7 1097 729C1188.3 727.3 1279.7 704.7 1371.2 711.3C1462.7 718 1554.3 754 1645.8 767.2C1737.3 780.3 1828.7 770.7 1874.3 765.8L1920 761L1920 1081L1874.3 1081C1828.7 1081 1737.3 1081 1645.8 1081C1554.3 1081 1462.7 1081 1371.2 1081C1279.7 1081 1188.3 1081 1097 1081C1005.7 1081 914.3 1081 823 1081C731.7 1081 640.3 1081 548.8 1081C457.3 1081 365.7 1081 274.2 1081C182.7 1081 91.3 1081 45.7 1081L0 1081Z" fill="#a0a7b1"></path><path d="M0 790L45.7 797.2C91.3 804.3 182.7 818.7 274.2 840.7C365.7 862.7 457.3 892.3 548.8 902.8C640.3 913.3 731.7 904.7 823 899.8C914.3 895 1005.7 894 1097 899.8C1188.3 905.7 1279.7 918.3 1371.2 918.2C1462.7 918 1554.3 905 1645.8 894.2C1737.3 883.3 1828.7 874.7 1874.3 870.3L1920 866L1920 1081L1874.3 1081C1828.7 1081 1737.3 1081 1645.8 1081C1554.3 1081 1462.7 1081 1371.2 1081C1279.7 1081 1188.3 1081 1097 1081C1005.7 1081 914.3 1081 823 1081C731.7 1081 640.3 1081 548.8 1081C457.3 1081 365.7 1081 274.2 1081C182.7 1081 91.3 1081 45.7 1081L0 1081Z" fill="#b4c3cf"></path><path d="M0 977L45.7 979.8C91.3 982.7 182.7 988.3 274.2 979.7C365.7 971 457.3 948 548.8 949C640.3 950 731.7 975 823 974.2C914.3 973.3 1005.7 946.7 1097 947.5C1188.3 948.3 1279.7 976.7 1371.2 985.5C1462.7 994.3 1554.3 983.7 1645.8 969.3C1737.3 955 1828.7 937 1874.3 928L1920 919L1920 1081L1874.3 1081C1828.7 1081 1737.3 1081 1645.8 1081C1554.3 1081 1462.7 1081 1371.2 1081C1279.7 1081 1188.3 1081 1097 1081C1005.7 1081 914.3 1081 823 1081C731.7 1081 640.3 1081 548.8 1081C457.3 1081 365.7 1081 274.2 1081C182.7 1081 91.3 1081 45.7 1081L0 1081Z" fill="#c7e0ed"></path></svg>