<svg width="251.9" height="38.1" viewBox="0 0 251.9 38.1" xmlns="http://www.w3.org/2000/svg"><g id="svgGroup" stroke-linecap="round" fill-rule="nonzero" font-size="9pt" stroke="#000" stroke-width="0.4mm" fill="#000" style="stroke:#000;stroke-width:0.4mm;fill:#000"><path d="M 244.35 10.15 L 245.25 10.15 A 10.318 10.318 0 0 1 247.821 10.441 Q 251.119 11.293 251.751 14.63 A 9.263 9.263 0 0 1 251.9 16.35 L 251.9 35.1 L 243.4 35.1 L 243.4 17.5 A 1.383 1.383 0 0 0 243.331 17.045 Q 243.116 16.427 242.228 16.401 A 2.71 2.71 0 0 0 242.15 16.4 L 241.3 16.4 A 1.733 1.733 0 0 0 240.741 16.482 Q 239.969 16.745 239.95 17.846 A 3.243 3.243 0 0 0 239.95 17.9 L 239.95 35.1 L 231.45 35.1 L 231.45 17.5 A 1.383 1.383 0 0 0 231.381 17.045 Q 231.166 16.427 230.278 16.401 A 2.71 2.71 0 0 0 230.2 16.4 L 229.35 16.4 A 1.733 1.733 0 0 0 228.791 16.482 Q 228.019 16.745 228 17.846 A 3.243 3.243 0 0 0 228 17.9 L 228 35.1 L 219.5 35.1 L 219.5 10.15 L 227.85 10.15 L 227.85 13.35 A 4.217 4.217 0 0 1 228.595 11.662 Q 229.711 10.205 232.208 10.152 A 8.982 8.982 0 0 1 232.4 10.15 L 233.3 10.15 A 10.542 10.542 0 0 1 235.485 10.359 Q 238.324 10.962 239.4 13.3 A 3.85 3.85 0 0 1 241.065 11.055 A 4.949 4.949 0 0 1 241.15 11 A 5.472 5.472 0 0 1 243.243 10.233 A 7.143 7.143 0 0 1 244.35 10.15 Z M 192.45 9.2 L 192.45 14 L 183.7 14 L 183.7 9.85 A 1.383 1.383 0 0 0 183.631 9.395 Q 183.416 8.777 182.528 8.751 A 2.71 2.71 0 0 0 182.45 8.75 L 180.65 8.75 A 2.067 2.067 0 0 0 180.178 8.799 Q 179.4 8.982 179.4 9.85 L 179.4 28.25 A 1.383 1.383 0 0 0 179.469 28.705 Q 179.684 29.323 180.572 29.349 A 2.71 2.71 0 0 0 180.65 29.35 L 182.45 29.35 A 2.067 2.067 0 0 0 182.922 29.301 Q 183.7 29.118 183.7 28.25 L 183.7 22.9 L 181.2 22.9 L 181.2 17.35 L 192.45 17.35 L 192.45 28.9 A 7.427 7.427 0 0 1 192.019 31.539 Q 190.67 35.1 185.1 35.1 L 178 35.1 A 12.699 12.699 0 0 1 175.249 34.829 Q 170.65 33.804 170.65 28.9 L 170.65 9.2 A 7.427 7.427 0 0 1 171.081 6.561 Q 172.43 3 178 3 L 185.1 3 A 12.699 12.699 0 0 1 187.851 3.271 Q 192.45 4.296 192.45 9.2 Z M 96.1 9.2 L 96.1 15 L 87.35 15 L 87.35 9.85 A 1.383 1.383 0 0 0 87.281 9.395 Q 87.066 8.777 86.178 8.751 A 2.71 2.71 0 0 0 86.1 8.75 L 84.35 8.75 A 2.067 2.067 0 0 0 83.878 8.799 Q 83.1 8.982 83.1 9.85 L 83.1 28.25 A 1.383 1.383 0 0 0 83.169 28.705 Q 83.384 29.323 84.272 29.349 A 2.71 2.71 0 0 0 84.35 29.35 L 86.1 29.35 A 2.067 2.067 0 0 0 86.572 29.301 Q 87.35 29.118 87.35 28.25 L 87.35 23.3 L 96.1 23.3 L 96.1 28.9 A 7.427 7.427 0 0 1 95.669 31.539 Q 94.32 35.1 88.75 35.1 L 81.7 35.1 A 12.699 12.699 0 0 1 78.949 34.829 Q 74.35 33.804 74.35 28.9 L 74.35 9.2 A 7.427 7.427 0 0 1 74.781 6.561 Q 76.13 3 81.7 3 L 88.75 3 A 12.699 12.699 0 0 1 91.501 3.271 Q 96.1 4.296 96.1 9.2 Z M 134.85 12.85 L 134.85 1.65 L 143.35 1.65 L 143.35 35.1 L 135 35.1 L 135 31.9 A 4.217 4.217 0 0 1 134.255 33.588 Q 133.139 35.045 130.642 35.098 A 8.982 8.982 0 0 1 130.45 35.1 L 129.55 35.1 A 10.318 10.318 0 0 1 126.979 34.809 Q 123.681 33.957 123.049 30.62 A 9.263 9.263 0 0 1 122.9 28.9 L 122.9 16.35 A 8.268 8.268 0 0 1 123.253 13.822 Q 124.117 11.132 127.093 10.413 A 10.484 10.484 0 0 1 129.55 10.15 L 130.45 10.15 A 6.703 6.703 0 0 1 132.063 10.329 Q 133.183 10.607 133.905 11.316 A 3.944 3.944 0 0 1 134.85 12.85 Z M 132.65 28.85 L 133.5 28.85 A 1.733 1.733 0 0 0 134.059 28.768 Q 134.831 28.505 134.85 27.404 A 3.243 3.243 0 0 0 134.85 27.35 L 134.85 17.9 Q 134.85 16.624 133.873 16.433 A 1.951 1.951 0 0 0 133.5 16.4 L 132.65 16.4 A 2.067 2.067 0 0 0 132.178 16.449 Q 131.4 16.632 131.4 17.5 L 131.4 27.75 A 1.383 1.383 0 0 0 131.469 28.205 Q 131.684 28.823 132.572 28.849 A 2.71 2.71 0 0 0 132.65 28.85 Z M 154.2 10.15 L 160.3 10.15 A 12.699 12.699 0 0 1 163.051 10.421 Q 167.65 11.446 167.65 16.35 L 167.65 24.85 L 154.9 24.85 L 154.9 28.15 A 1.383 1.383 0 0 0 154.969 28.605 Q 155.184 29.223 156.072 29.249 A 2.71 2.71 0 0 0 156.15 29.25 L 158.35 29.25 A 1.881 1.881 0 0 0 158.837 29.193 Q 159.6 28.988 159.6 28.05 L 159.6 26.65 L 167.65 26.65 L 167.65 28.9 A 7.427 7.427 0 0 1 167.219 31.539 Q 165.87 35.1 160.3 35.1 L 154.2 35.1 A 12.699 12.699 0 0 1 151.449 34.829 Q 146.85 33.804 146.85 28.9 L 146.85 16.35 A 7.427 7.427 0 0 1 147.281 13.711 Q 148.63 10.15 154.2 10.15 Z M 154.9 17.1 L 154.9 20.25 L 159.6 20.25 L 159.6 17.1 A 1.383 1.383 0 0 0 159.531 16.645 Q 159.316 16.027 158.428 16.001 A 2.71 2.71 0 0 0 158.35 16 L 156.15 16 A 2.067 2.067 0 0 0 155.678 16.049 Q 154.9 16.232 154.9 17.1 Z M 202.8 10.15 L 208.9 10.15 A 12.699 12.699 0 0 1 211.651 10.421 Q 216.25 11.446 216.25 16.35 L 216.25 24.85 L 203.5 24.85 L 203.5 28.15 A 1.383 1.383 0 0 0 203.569 28.605 Q 203.784 29.223 204.672 29.249 A 2.71 2.71 0 0 0 204.75 29.25 L 206.95 29.25 A 1.881 1.881 0 0 0 207.437 29.193 Q 208.2 28.988 208.2 28.05 L 208.2 26.65 L 216.25 26.65 L 216.25 28.9 A 7.427 7.427 0 0 1 215.819 31.539 Q 214.47 35.1 208.9 35.1 L 202.8 35.1 A 12.699 12.699 0 0 1 200.049 34.829 Q 195.45 33.804 195.45 28.9 L 195.45 16.35 A 7.427 7.427 0 0 1 195.881 13.711 Q 197.23 10.15 202.8 10.15 Z M 203.5 17.1 L 203.5 20.25 L 208.2 20.25 L 208.2 17.1 A 1.383 1.383 0 0 0 208.131 16.645 Q 207.916 16.027 207.028 16.001 A 2.71 2.71 0 0 0 206.95 16 L 204.75 16 A 2.067 2.067 0 0 0 204.278 16.049 Q 203.5 16.232 203.5 17.1 Z M 24.15 8.3 L 24.15 15 L 8.4 18.95 L 24.15 23 L 24.15 29.8 L 0 22.5 L 0 15.2 L 24.15 8.3 Z M 47.2 23 L 62.95 18.95 L 47.2 15 L 47.2 8.3 L 71.35 15.2 L 71.35 22.5 L 47.2 29.8 L 47.2 23 Z M 24.4 38.1 L 39.75 0 L 46.95 0 L 31.6 38.1 L 24.4 38.1 Z M 106.2 10.15 L 112.55 10.15 A 14.253 14.253 0 0 1 114.467 10.27 Q 116.801 10.587 118 11.75 Q 119.522 13.226 119.64 15.893 A 10.335 10.335 0 0 1 119.65 16.35 L 119.65 28.9 A 8.726 8.726 0 0 1 119.472 30.718 Q 119.109 32.425 118 33.5 Q 116.413 35.039 112.837 35.098 A 17.474 17.474 0 0 1 112.55 35.1 L 106.2 35.1 A 14.253 14.253 0 0 1 104.283 34.98 Q 101.949 34.663 100.75 33.5 A 4.905 4.905 0 0 1 100.724 33.475 Q 99.226 32.001 99.11 29.354 A 10.339 10.339 0 0 1 99.1 28.9 L 99.1 16.35 A 8.726 8.726 0 0 1 99.278 14.532 Q 99.641 12.825 100.75 11.75 Q 102.337 10.211 105.913 10.152 A 17.474 17.474 0 0 1 106.2 10.15 Z M 111.3 28.1 L 111.3 17.15 A 1.383 1.383 0 0 0 111.231 16.695 Q 111.016 16.077 110.128 16.051 A 2.71 2.71 0 0 0 110.05 16.05 L 108.7 16.05 A 2.067 2.067 0 0 0 108.228 16.099 Q 107.45 16.282 107.45 17.15 L 107.45 28.1 A 1.383 1.383 0 0 0 107.519 28.555 Q 107.734 29.173 108.622 29.199 A 2.71 2.71 0 0 0 108.7 29.2 L 110.05 29.2 A 2.067 2.067 0 0 0 110.522 29.151 Q 111.3 28.968 111.3 28.1 Z" vector-effect="non-scaling-stroke"/></g></svg>