<svg width="755.701" height="114.3" viewBox="0 0 755.701 114.3" xmlns="http://www.w3.org/2000/svg"><g id="svgGroup" stroke-linecap="round" fill-rule="nonzero" font-size="9pt" stroke="#000" stroke-width="0.4mm" fill="#000" style="stroke:#000;stroke-width:0.4mm;fill:#000"><path d="M 733.05 30.45 L 735.75 30.45 A 30.953 30.953 0 0 1 743.463 31.324 Q 753.357 33.878 755.252 43.891 A 27.788 27.788 0 0 1 755.7 49.05 L 755.7 105.3 L 730.2 105.3 L 730.2 52.5 Q 730.2 49.304 726.683 49.203 A 8.129 8.129 0 0 0 726.45 49.2 L 723.9 49.2 A 5.2 5.2 0 0 0 722.224 49.447 Q 719.907 50.235 719.851 53.537 A 9.73 9.73 0 0 0 719.85 53.7 L 719.85 105.3 L 694.35 105.3 L 694.35 52.5 Q 694.35 49.304 690.833 49.203 A 8.129 8.129 0 0 0 690.6 49.2 L 688.05 49.2 A 5.2 5.2 0 0 0 686.374 49.447 Q 684.057 50.235 684.001 53.537 A 9.73 9.73 0 0 0 684 53.7 L 684 105.3 L 658.5 105.3 L 658.5 30.45 L 683.55 30.45 L 683.55 40.05 A 12.651 12.651 0 0 1 685.785 34.987 Q 689.132 30.616 696.624 30.456 A 26.947 26.947 0 0 1 697.2 30.45 L 699.9 30.45 A 31.625 31.625 0 0 1 706.455 31.078 Q 714.971 32.886 718.2 39.9 Q 719.4 35.55 723.45 33 A 16.415 16.415 0 0 1 729.728 30.699 A 21.429 21.429 0 0 1 733.05 30.45 Z M 577.35 27.6 L 577.35 42 L 551.1 42 L 551.1 29.55 Q 551.1 26.354 547.583 26.253 A 8.129 8.129 0 0 0 547.35 26.25 L 541.95 26.25 Q 538.725 26.25 538.273 28.691 A 4.728 4.728 0 0 0 538.2 29.55 L 538.2 84.75 Q 538.2 87.946 541.717 88.047 A 8.129 8.129 0 0 0 541.95 88.05 L 547.35 88.05 Q 550.575 88.05 551.027 85.609 A 4.728 4.728 0 0 0 551.1 84.75 L 551.1 68.7 L 543.6 68.7 L 543.6 52.05 L 577.35 52.05 L 577.35 86.7 A 22.281 22.281 0 0 1 576.057 94.618 Q 572.01 105.3 555.3 105.3 L 534 105.3 A 38.098 38.098 0 0 1 525.747 104.488 Q 511.95 101.413 511.95 86.7 L 511.95 27.6 A 22.281 22.281 0 0 1 513.243 19.682 Q 517.29 9 534 9 L 555.3 9 A 38.098 38.098 0 0 1 563.553 9.812 Q 577.35 12.887 577.35 27.6 Z M 288.3 27.6 L 288.3 45 L 262.05 45 L 262.05 29.55 Q 262.05 26.354 258.533 26.253 A 8.129 8.129 0 0 0 258.3 26.25 L 253.05 26.25 Q 249.825 26.25 249.373 28.691 A 4.728 4.728 0 0 0 249.3 29.55 L 249.3 84.75 Q 249.3 87.946 252.817 88.047 A 8.129 8.129 0 0 0 253.05 88.05 L 258.3 88.05 Q 261.525 88.05 261.977 85.609 A 4.728 4.728 0 0 0 262.05 84.75 L 262.05 69.9 L 288.3 69.9 L 288.3 86.7 A 22.281 22.281 0 0 1 287.007 94.618 Q 282.96 105.3 266.25 105.3 L 245.1 105.3 A 38.098 38.098 0 0 1 236.847 104.488 Q 223.05 101.413 223.05 86.7 L 223.05 27.6 A 22.281 22.281 0 0 1 224.343 19.682 Q 228.39 9 245.1 9 L 266.25 9 A 38.098 38.098 0 0 1 274.503 9.812 Q 288.3 12.887 288.3 27.6 Z M 404.55 38.55 L 404.55 4.95 L 430.05 4.95 L 430.05 105.3 L 405 105.3 L 405 95.7 A 12.651 12.651 0 0 1 402.765 100.763 Q 399.418 105.134 391.926 105.294 A 26.947 26.947 0 0 1 391.35 105.3 L 388.65 105.3 A 30.953 30.953 0 0 1 380.937 104.426 Q 371.043 101.872 369.148 91.859 A 27.788 27.788 0 0 1 368.7 86.7 L 368.7 49.05 A 24.804 24.804 0 0 1 369.76 41.465 Q 372.351 33.397 381.28 31.239 A 31.452 31.452 0 0 1 388.65 30.45 L 391.35 30.45 Q 398.152 30.45 401.714 33.948 A 11.833 11.833 0 0 1 404.55 38.55 Z M 397.95 86.55 L 400.5 86.55 A 5.2 5.2 0 0 0 402.176 86.303 Q 404.493 85.515 404.549 82.213 A 9.73 9.73 0 0 0 404.55 82.05 L 404.55 53.7 Q 404.55 49.871 401.618 49.3 A 5.853 5.853 0 0 0 400.5 49.2 L 397.95 49.2 Q 394.725 49.2 394.273 51.641 A 4.728 4.728 0 0 0 394.2 52.5 L 394.2 83.25 Q 394.2 86.446 397.717 86.547 A 8.129 8.129 0 0 0 397.95 86.55 Z M 462.6 30.45 L 480.9 30.45 A 38.098 38.098 0 0 1 489.153 31.262 Q 502.95 34.337 502.95 49.05 L 502.95 74.55 L 464.7 74.55 L 464.7 84.45 Q 464.7 87.646 468.217 87.747 A 8.129 8.129 0 0 0 468.45 87.75 L 475.05 87.75 A 5.643 5.643 0 0 0 476.511 87.578 Q 478.394 87.072 478.728 85.079 A 5.625 5.625 0 0 0 478.8 84.15 L 478.8 79.95 L 502.95 79.95 L 502.95 86.7 A 22.281 22.281 0 0 1 501.657 94.618 Q 497.61 105.3 480.9 105.3 L 462.6 105.3 A 38.098 38.098 0 0 1 454.347 104.488 Q 440.55 101.413 440.55 86.7 L 440.55 49.05 A 22.281 22.281 0 0 1 441.843 41.132 Q 445.89 30.45 462.6 30.45 Z M 464.7 51.3 L 464.7 60.75 L 478.8 60.75 L 478.8 51.3 Q 478.8 48.104 475.283 48.003 A 8.129 8.129 0 0 0 475.05 48 L 468.45 48 Q 465.225 48 464.773 50.441 A 4.728 4.728 0 0 0 464.7 51.3 Z M 608.4 30.45 L 626.7 30.45 A 38.098 38.098 0 0 1 634.953 31.262 Q 648.75 34.337 648.75 49.05 L 648.75 74.55 L 610.5 74.55 L 610.5 84.45 Q 610.5 87.646 614.017 87.747 A 8.129 8.129 0 0 0 614.25 87.75 L 620.85 87.75 A 5.643 5.643 0 0 0 622.311 87.578 Q 624.194 87.072 624.528 85.079 A 5.625 5.625 0 0 0 624.6 84.15 L 624.6 79.95 L 648.75 79.95 L 648.75 86.7 A 22.281 22.281 0 0 1 647.457 94.618 Q 643.41 105.3 626.7 105.3 L 608.4 105.3 A 38.098 38.098 0 0 1 600.147 104.488 Q 586.35 101.413 586.35 86.7 L 586.35 49.05 A 22.281 22.281 0 0 1 587.643 41.132 Q 591.69 30.45 608.4 30.45 Z M 610.5 51.3 L 610.5 60.75 L 624.6 60.75 L 624.6 51.3 Q 624.6 48.104 621.083 48.003 A 8.129 8.129 0 0 0 620.85 48 L 614.25 48 Q 611.025 48 610.573 50.441 A 4.728 4.728 0 0 0 610.5 51.3 Z M 72.45 24.9 L 72.45 45 L 25.2 56.85 L 72.45 69 L 72.45 89.4 L 0 67.5 L 0 45.6 L 72.45 24.9 Z M 141.6 69 L 188.85 56.85 L 141.6 45 L 141.6 24.9 L 214.05 45.6 L 214.05 67.5 L 141.6 89.4 L 141.6 69 Z M 73.2 114.3 L 119.25 0 L 140.85 0 L 94.8 114.3 L 73.2 114.3 Z M 318.6 30.45 L 337.65 30.45 A 42.76 42.76 0 0 1 343.402 30.809 Q 349.851 31.687 353.412 34.716 A 12.198 12.198 0 0 1 354 35.25 A 15.483 15.483 0 0 1 358.101 42.317 Q 358.791 44.76 358.92 47.678 A 31.004 31.004 0 0 1 358.95 49.05 L 358.95 86.7 A 26.179 26.179 0 0 1 358.417 92.154 Q 357.326 97.275 354 100.5 A 14.416 14.416 0 0 1 349.149 103.518 Q 344.882 105.188 338.512 105.293 A 52.416 52.416 0 0 1 337.65 105.3 L 318.6 105.3 A 42.76 42.76 0 0 1 312.848 104.941 Q 306.399 104.063 302.838 101.034 A 12.198 12.198 0 0 1 302.25 100.5 Q 297.681 96.07 297.329 88.062 A 31.017 31.017 0 0 1 297.3 86.7 L 297.3 49.05 A 26.179 26.179 0 0 1 297.833 43.596 Q 298.924 38.475 302.25 35.25 A 14.416 14.416 0 0 1 307.101 32.232 Q 311.368 30.562 317.738 30.457 A 52.416 52.416 0 0 1 318.6 30.45 Z M 333.9 84.3 L 333.9 51.45 Q 333.9 48.254 330.383 48.153 A 8.129 8.129 0 0 0 330.15 48.15 L 326.1 48.15 Q 322.875 48.15 322.423 50.591 A 4.728 4.728 0 0 0 322.35 51.45 L 322.35 84.3 Q 322.35 87.496 325.867 87.597 A 8.129 8.129 0 0 0 326.1 87.6 L 330.15 87.6 Q 333.375 87.6 333.827 85.159 A 4.728 4.728 0 0 0 333.9 84.3 Z" vector-effect="non-scaling-stroke"/></g></svg>