<svg width="503.8" height="76.2" viewBox="0 0 503.8 76.2" xmlns="http://www.w3.org/2000/svg"><g id="svgGroup" stroke-linecap="round" fill-rule="nonzero" font-size="9pt" stroke="#000" stroke-width="0.4mm" fill="#000" style="stroke:#000;stroke-width:0.4mm;fill:#000"><path d="M 488.7 20.3 L 490.5 20.3 Q 503.8 20.3 503.8 32.7 L 503.8 70.2 L 486.8 70.2 L 486.8 35 A 2.767 2.767 0 0 0 486.663 34.09 Q 486.233 32.853 484.455 32.802 A 5.419 5.419 0 0 0 484.3 32.8 L 482.6 32.8 A 3.467 3.467 0 0 0 481.483 32.965 Q 479.938 33.49 479.901 35.692 A 6.487 6.487 0 0 0 479.9 35.8 L 479.9 70.2 L 462.9 70.2 L 462.9 35 A 2.767 2.767 0 0 0 462.763 34.09 Q 462.333 32.853 460.555 32.802 A 5.419 5.419 0 0 0 460.4 32.8 L 458.7 32.8 A 3.467 3.467 0 0 0 457.583 32.965 Q 456.038 33.49 456.001 35.692 A 6.487 6.487 0 0 0 456 35.8 L 456 70.2 L 439 70.2 L 439 20.3 L 455.7 20.3 L 455.7 26.7 Q 457.1 20.3 464.8 20.3 L 466.6 20.3 A 21.083 21.083 0 0 1 470.97 20.719 Q 473.454 21.246 475.263 22.438 A 9.75 9.75 0 0 1 478.8 26.6 A 7.701 7.701 0 0 1 482.131 22.109 A 9.898 9.898 0 0 1 482.3 22 A 10.943 10.943 0 0 1 486.485 20.466 A 14.286 14.286 0 0 1 488.7 20.3 Z M 384.9 18.4 L 384.9 28 L 367.4 28 L 367.4 19.7 A 2.767 2.767 0 0 0 367.263 18.79 Q 366.833 17.553 365.055 17.502 A 5.419 5.419 0 0 0 364.9 17.5 L 361.3 17.5 Q 359.15 17.5 358.849 19.127 A 3.152 3.152 0 0 0 358.8 19.7 L 358.8 56.5 A 2.767 2.767 0 0 0 358.937 57.41 Q 359.367 58.647 361.145 58.698 A 5.419 5.419 0 0 0 361.3 58.7 L 364.9 58.7 Q 367.05 58.7 367.351 57.073 A 3.152 3.152 0 0 0 367.4 56.5 L 367.4 45.8 L 362.4 45.8 L 362.4 34.7 L 384.9 34.7 L 384.9 57.8 A 14.854 14.854 0 0 1 384.038 63.079 Q 381.34 70.2 370.2 70.2 L 356 70.2 Q 341.3 70.2 341.3 57.8 L 341.3 18.4 A 14.854 14.854 0 0 1 342.162 13.121 Q 344.86 6 356 6 L 370.2 6 Q 384.9 6 384.9 18.4 Z M 192.2 18.4 L 192.2 30 L 174.7 30 L 174.7 19.7 A 2.767 2.767 0 0 0 174.563 18.79 Q 174.133 17.553 172.355 17.502 A 5.419 5.419 0 0 0 172.2 17.5 L 168.7 17.5 Q 166.55 17.5 166.249 19.127 A 3.152 3.152 0 0 0 166.2 19.7 L 166.2 56.5 A 2.767 2.767 0 0 0 166.337 57.41 Q 166.767 58.647 168.545 58.698 A 5.419 5.419 0 0 0 168.7 58.7 L 172.2 58.7 Q 174.35 58.7 174.651 57.073 A 3.152 3.152 0 0 0 174.7 56.5 L 174.7 46.6 L 192.2 46.6 L 192.2 57.8 A 14.854 14.854 0 0 1 191.338 63.079 Q 188.64 70.2 177.5 70.2 L 163.4 70.2 Q 148.7 70.2 148.7 57.8 L 148.7 18.4 A 14.854 14.854 0 0 1 149.562 13.121 Q 152.26 6 163.4 6 L 177.5 6 Q 192.2 6 192.2 18.4 Z M 269.7 25.7 L 269.7 3.3 L 286.7 3.3 L 286.7 70.2 L 270 70.2 L 270 63.8 Q 268.6 70.2 260.9 70.2 L 259.1 70.2 Q 245.8 70.2 245.8 57.8 L 245.8 32.7 A 16.536 16.536 0 0 1 246.506 27.643 Q 248.234 22.265 254.187 20.826 A 20.968 20.968 0 0 1 259.1 20.3 L 260.9 20.3 Q 265.434 20.3 267.81 22.632 A 7.888 7.888 0 0 1 269.7 25.7 Z M 265.3 57.7 L 267 57.7 A 3.467 3.467 0 0 0 268.117 57.535 Q 269.662 57.01 269.699 54.808 A 6.487 6.487 0 0 0 269.7 54.7 L 269.7 35.8 A 4.856 4.856 0 0 0 269.58 34.668 Q 269.215 33.153 267.745 32.867 A 3.902 3.902 0 0 0 267 32.8 L 265.3 32.8 Q 263.15 32.8 262.849 34.427 A 3.152 3.152 0 0 0 262.8 35 L 262.8 55.5 A 2.767 2.767 0 0 0 262.937 56.41 Q 263.367 57.647 265.145 57.698 A 5.419 5.419 0 0 0 265.3 57.7 Z M 308.4 20.3 L 320.6 20.3 Q 335.3 20.3 335.3 32.7 L 335.3 49.7 L 309.8 49.7 L 309.8 56.3 A 2.767 2.767 0 0 0 309.937 57.21 Q 310.367 58.447 312.145 58.498 A 5.419 5.419 0 0 0 312.3 58.5 L 316.7 58.5 Q 318.853 58.5 319.152 56.72 A 3.75 3.75 0 0 0 319.2 56.1 L 319.2 53.3 L 335.3 53.3 L 335.3 57.8 A 14.854 14.854 0 0 1 334.438 63.079 Q 331.74 70.2 320.6 70.2 L 308.4 70.2 Q 293.7 70.2 293.7 57.8 L 293.7 32.7 A 14.854 14.854 0 0 1 294.562 27.421 Q 297.26 20.3 308.4 20.3 Z M 309.8 34.2 L 309.8 40.5 L 319.2 40.5 L 319.2 34.2 A 2.767 2.767 0 0 0 319.063 33.29 Q 318.633 32.053 316.855 32.002 A 5.419 5.419 0 0 0 316.7 32 L 312.3 32 Q 310.15 32 309.849 33.627 A 3.152 3.152 0 0 0 309.8 34.2 Z M 405.6 20.3 L 417.8 20.3 Q 432.5 20.3 432.5 32.7 L 432.5 49.7 L 407 49.7 L 407 56.3 A 2.767 2.767 0 0 0 407.137 57.21 Q 407.567 58.447 409.345 58.498 A 5.419 5.419 0 0 0 409.5 58.5 L 413.9 58.5 Q 416.053 58.5 416.352 56.72 A 3.75 3.75 0 0 0 416.4 56.1 L 416.4 53.3 L 432.5 53.3 L 432.5 57.8 A 14.854 14.854 0 0 1 431.638 63.079 Q 428.94 70.2 417.8 70.2 L 405.6 70.2 Q 390.9 70.2 390.9 57.8 L 390.9 32.7 A 14.854 14.854 0 0 1 391.762 27.421 Q 394.46 20.3 405.6 20.3 Z M 407 34.2 L 407 40.5 L 416.4 40.5 L 416.4 34.2 A 2.767 2.767 0 0 0 416.263 33.29 Q 415.833 32.053 414.055 32.002 A 5.419 5.419 0 0 0 413.9 32 L 409.5 32 Q 407.35 32 407.049 33.627 A 3.152 3.152 0 0 0 407 34.2 Z M 48.3 16.6 L 48.3 30 L 16.8 37.9 L 48.3 46 L 48.3 59.6 L 0 45 L 0 30.4 L 48.3 16.6 Z M 94.4 46 L 125.9 37.9 L 94.4 30 L 94.4 16.6 L 142.7 30.4 L 142.7 45 L 94.4 59.6 L 94.4 46 Z M 48.8 76.2 L 79.5 0 L 93.9 0 L 63.2 76.2 L 48.8 76.2 Z M 212.4 20.3 L 225.1 20.3 Q 232.265 20.3 235.608 23.144 A 8.132 8.132 0 0 1 236 23.5 A 10.322 10.322 0 0 1 238.734 28.211 Q 239.194 29.84 239.28 31.785 A 20.669 20.669 0 0 1 239.3 32.7 L 239.3 57.8 Q 239.3 62.446 237.322 65.413 A 9.702 9.702 0 0 1 236 67 Q 232.826 70.078 225.675 70.195 A 34.945 34.945 0 0 1 225.1 70.2 L 212.4 70.2 Q 205.235 70.2 201.892 67.356 A 8.132 8.132 0 0 1 201.5 67 A 10.322 10.322 0 0 1 198.766 62.289 Q 198.306 60.66 198.22 58.715 A 20.669 20.669 0 0 1 198.2 57.8 L 198.2 32.7 Q 198.2 28.054 200.178 25.087 A 9.702 9.702 0 0 1 201.5 23.5 Q 204.674 20.422 211.825 20.305 A 34.945 34.945 0 0 1 212.4 20.3 Z M 222.6 56.2 L 222.6 34.3 A 2.767 2.767 0 0 0 222.463 33.39 Q 222.033 32.153 220.255 32.102 A 5.419 5.419 0 0 0 220.1 32.1 L 217.4 32.1 Q 215.25 32.1 214.949 33.727 A 3.152 3.152 0 0 0 214.9 34.3 L 214.9 56.2 A 2.767 2.767 0 0 0 215.037 57.11 Q 215.467 58.347 217.245 58.398 A 5.419 5.419 0 0 0 217.4 58.4 L 220.1 58.4 Q 222.25 58.4 222.551 56.773 A 3.152 3.152 0 0 0 222.6 56.2 Z" vector-effect="non-scaling-stroke"/></g></svg>